<svg xmlns="http://www.w3.org/2000/svg" viewBox="0 0 600 400" width="600" height="400" role="img" aria-label="Gallery theme preview"><title>Gallery</title><rect width="600" height="400" fill="#ffffff"/><rect width="600" height="52" fill="#ffffff"/><rect x="24" y="20" width="86" height="12" rx="0.45" fill="#707579"/><rect x="540" y="20" width="34" height="3" rx="1.5" fill="#0d0d0d"/><rect x="540" y="26" width="34" height="3" rx="1.5" fill="#0d0d0d"/><rect x="540" y="32" width="34" height="3" rx="1.5" fill="#0d0d0d"/><text x="24" y="126" font-family="system-ui, sans-serif" font-size="28.5" font-weight="700" fill="#557b96">Gallery</text><text x="24" y="152" font-family="system-ui, sans-serif" font-size="14" fill="#767676">A starting look for the whole site.</text><rect x="24" y="168" width="118" height="32" rx="0.9" fill="#707579"/><text x="83" y="189" font-family="system-ui, sans-serif" font-size="12" font-weight="600" fill="#fcfcfc" text-anchor="middle">Get in touch</text><rect x="154" y="168" width="104" height="32" rx="0.9" fill="#707579"/><text x="206" y="189" font-family="system-ui, sans-serif" font-size="12" font-weight="600" fill="#fcfcfc" text-anchor="middle">Learn more</text><rect x="0" y="224" width="600" height="108" fill="#fafafa"/><rect x="24" y="242" width="173.3" height="72" rx="0.45" fill="#ebf1f6"/><rect x="38" y="258" width="113.3" height="9" rx="0.45" fill="#0d0d0d" opacity=".9"/><rect x="38" y="278" width="145.3" height="6" rx="0.45" fill="#0d0d0d" opacity=".45"/><rect x="38" y="290" width="129.3" height="6" rx="0.45" fill="#0d0d0d" opacity=".45"/><rect x="213.3" y="242" width="173.3" height="72" rx="0.45" fill="#ebf1f6"/><rect x="227.3" y="258" width="113.3" height="9" rx="0.45" fill="#0d0d0d" opacity=".9"/><rect x="227.3" y="278" width="145.3" height="6" rx="0.45" fill="#0d0d0d" opacity=".45"/><rect x="227.3" y="290" width="129.3" height="6" rx="0.45" fill="#0d0d0d" opacity=".45"/><rect x="402.7" y="242" width="173.3" height="72" rx="0.45" fill="#ebf1f6"/><rect x="416.7" y="258" width="113.3" height="9" rx="0.45" fill="#0d0d0d" opacity=".9"/><rect x="416.7" y="278" width="145.3" height="6" rx="0.45" fill="#0d0d0d" opacity=".45"/><rect x="416.7" y="290" width="129.3" height="6" rx="0.45" fill="#0d0d0d" opacity=".45"/><rect x="0" y="332" width="600" height="68" fill="#ffffff"/><rect x="24" y="352" width="70" height="10" rx="0.45" fill="#767676"/><rect x="404" y="354" width="42" height="6" rx="0.45" fill="#767676" opacity=".8"/><rect x="458" y="354" width="42" height="6" rx="0.45" fill="#767676" opacity=".8"/><rect x="512" y="354" width="42" height="6" rx="0.45" fill="#767676" opacity=".8"/><rect x="24" y="378" width="180" height="5" rx="0.45" fill="#767676" opacity=".6"/></svg>